<?xml version="1.0" encoding="UTF-8"?>
<svg version="1.1" xmlns="http://www.w3.org/2000/svg" width="512" height="512">
<path d="M0 0 C0.78733249 -0.00350607 1.57466498 -0.00701215 2.38585603 -0.01062447 C5.02819321 -0.01993982 7.67031005 -0.0150148 10.3126564 -0.01015663 C12.224617 -0.01389282 14.13657608 -0.01849422 16.04853272 -0.02388728 C21.30601822 -0.03613656 26.56344017 -0.03585453 31.82093668 -0.03349853 C37.48979711 -0.03309085 43.15863704 -0.04412485 48.82748795 -0.05361366 C59.93531498 -0.0702353 71.04312079 -0.07572374 82.15095922 -0.07683842 C91.17914776 -0.07778836 100.20732928 -0.08189594 109.23551559 -0.08823967 C130.66104944 -0.10298834 152.08657636 -0.11528906 173.51211548 -0.11424255 C174.5399138 -0.11419582 174.5399138 -0.11419582 175.58847572 -0.11414814 C179.06133 -0.11398192 182.53418428 -0.11378384 186.00703856 -0.11357872 C186.69675656 -0.11353883 187.38647455 -0.11349894 188.09709309 -0.11345784 C189.49187127 -0.11337697 190.88664946 -0.11329337 192.28142764 -0.11320706 C213.9797099 -0.11198167 235.67792963 -0.1269924 257.376194 -0.15435219 C281.75581637 -0.18508031 306.13538724 -0.2022589 330.51503205 -0.20042574 C343.42283991 -0.19976146 356.33057727 -0.20527051 369.23836899 -0.22678185 C380.22828888 -0.24497942 391.21810631 -0.24935265 402.20803472 -0.235763 C407.81532483 -0.22922617 413.4224183 -0.22914214 419.02968979 -0.2464695 C424.16440101 -0.26217338 429.29875922 -0.25936382 434.4334617 -0.24190123 C436.28943879 -0.23882544 438.14544205 -0.24248548 440.00138828 -0.25362138 C451.87730192 -0.32014993 462.37913744 0.02445451 471.51193619 8.55414391 C477.04175167 14.70465297 480.28825741 21.6156315 480.30045509 29.96518135 C480.30690399 31.08564724 480.31335288 32.20611312 480.31999719 33.36053252 C480.31689999 34.58133773 480.31380278 35.80214294 480.31061172 37.05994225 C480.31514284 38.36474989 480.31967395 39.66955754 480.32434237 41.01390481 C480.33656351 44.62957172 480.33631295 48.24514603 480.33395362 51.86082888 C480.33354522 55.7628061 480.3445868 59.66475374 480.35406876 63.56671715 C480.37067516 71.20940629 480.37617815 78.85206458 480.37729351 86.49477026 C480.37824421 92.70831441 480.38235561 98.92184839 480.38869476 105.13538933 C480.40630664 122.75729806 480.41553379 140.37918244 480.41403382 158.00110003 C480.41391395 159.42582843 480.41391395 159.42582843 480.41379166 160.87933922 C480.4137099 161.83031983 480.41362813 162.78130045 480.41354389 163.76109865 C480.41273114 179.17020264 480.43186633 194.57920885 480.46006839 209.98828456 C480.48880679 225.81548345 480.50260814 241.64263467 480.50088084 257.46986032 C480.50021724 266.35350375 480.50569626 275.23704469 480.52723694 284.1206646 C480.54546137 291.68504439 480.54978577 299.24927524 480.53621809 306.81366751 C480.52969461 310.67115993 480.5295485 314.5283667 480.54692459 318.38583183 C480.56559132 322.57299032 480.55308463 326.7594894 480.53766251 330.946661 C480.54794963 332.15854332 480.55823676 333.37042564 480.56883562 334.61903167 C480.49013712 344.29546567 478.48726382 352.50843326 471.74631119 359.72601891 C464.76914971 365.99906317 457.43995555 368.56751303 448.08637238 368.51453781 C447.29903988 368.51804389 446.51170739 368.52154996 445.70051634 368.52516228 C443.05817917 368.53447763 440.41606232 368.52955261 437.77371597 368.52469444 C435.86175537 368.52843063 433.9497963 368.53303203 432.03783965 368.53842509 C426.78035416 368.55067437 421.52293221 368.55039234 416.2654357 368.54803634 C410.59657526 368.54762866 404.92773534 368.55866266 399.25888443 368.56815147 C388.15105739 368.58477311 377.04325158 368.59026155 365.93541315 368.59137623 C356.90722462 368.59232617 347.8790431 368.59643375 338.85085678 368.60277748 C317.42532294 368.61752615 295.99979602 368.62982687 274.5742569 368.62878036 C273.54645858 368.62873363 273.54645858 368.62873363 272.49789665 368.62868595 C269.02504237 368.62851973 265.55218809 368.62832165 262.07933381 368.62811653 C261.38961582 368.62807664 260.69989783 368.62803675 259.98927929 368.62799565 C258.5945011 368.62791478 257.19972292 368.62783118 255.80494474 368.62774487 C234.10666248 368.62651948 212.40844274 368.64153021 190.71017838 368.66889 C166.330556 368.69961812 141.95098514 368.71679671 117.57134032 368.71496356 C104.66353246 368.71429927 91.7557951 368.71980832 78.84800339 368.74131966 C67.8580835 368.75951723 56.86826607 368.76389047 45.87833765 368.75030081 C40.27104754 368.74376398 34.66395408 368.74367995 29.05668259 368.76100731 C23.92197137 368.77671119 18.78761315 368.77390163 13.65291068 368.75643905 C11.79693359 368.75336325 9.94093033 368.75702329 8.08498409 368.7681592 C-3.79092954 368.83468774 -14.29276506 368.4900833 -23.42556381 359.96039391 C-28.9553793 353.80988485 -32.20188503 346.89890631 -32.21408272 338.54935646 C-32.22053161 337.42889057 -32.2269805 336.30842469 -32.23362482 335.15400529 C-32.23052761 333.93320008 -32.22743041 332.71239487 -32.22423935 331.45459557 C-32.22877046 330.14978792 -32.23330158 328.84498027 -32.23796999 327.500633 C-32.25019114 323.88496609 -32.24994058 320.26939178 -32.24758124 316.65370893 C-32.24717285 312.75173171 -32.25821442 308.84978408 -32.26769638 304.94782066 C-32.28430278 297.30513152 -32.28980577 289.66247323 -32.29092114 282.01976755 C-32.29187184 275.8062234 -32.29598323 269.59268942 -32.30232239 263.37914848 C-32.31993426 245.75723975 -32.32916141 228.13535537 -32.32766144 210.51343778 C-32.32758153 209.56361885 -32.32750161 208.61379992 -32.32741928 207.63519859 C-32.32733752 206.68421798 -32.32725576 205.73323737 -32.32717152 204.75343916 C-32.32635876 189.34433517 -32.34549395 173.93532896 -32.37369601 158.52625325 C-32.40243441 142.69905436 -32.41623576 126.87190314 -32.41450846 111.0446775 C-32.41384486 102.16103406 -32.41932389 93.27749313 -32.44086456 84.39387321 C-32.459089 76.82949342 -32.4634134 69.26526257 -32.44984572 61.70087031 C-32.44332224 57.84337788 -32.44317613 53.98617111 -32.46055222 50.12870598 C-32.47921895 45.9415475 -32.46671226 41.75504841 -32.45129013 37.56787682 C-32.46157726 36.35599449 -32.47186438 35.14411217 -32.48246324 33.89550614 C-32.40376474 24.21907214 -30.40089144 16.00610455 -23.65993881 8.78851891 C-16.68277733 2.51547464 -9.35358317 -0.05297522 0 0 Z " fill="#26A6D1" transform="translate(31.95681381225586,71.74273109436035)"/>
<path d="M0 0 C17.49 0 34.98 0 53 0 C54.65 3.3 56.3 6.6 58 10 C58.33 6.7 58.66 3.4 59 0 C79.13 0 99.26 0 120 0 C123.96 8.58 127.92 17.16 132 26 C132.33 26.33 132.66 26.66 133 27 C136.96 18.09 140.92 9.18 145 0 C164.64566651 -0.2486045 184.2900537 -0.45110587 203.93689537 -0.56993389 C213.05990405 -0.62658191 222.18186391 -0.70376673 231.30419922 -0.82983398 C239.25817541 -0.93970226 247.21139192 -1.01049313 255.16610587 -1.03497344 C259.37600075 -1.04927798 263.58372299 -1.08272629 267.79291916 -1.16303062 C271.76138319 -1.23812342 275.72679673 -1.2606478 279.69590378 -1.24418449 C281.14639928 -1.24719243 282.5970046 -1.26883464 284.04688263 -1.31126022 C290.18645389 -1.48198742 295.03273004 -1.55707482 299.97798538 2.35704613 C302.50859934 5.13185892 304.74331761 8.00141113 307 11 C308.6412302 12.69172072 310.30110953 14.36619257 312 16 C314.12809258 13.89888324 316.25253715 11.79429065 318.375 9.6875 C319.27992188 8.79514648 319.27992188 8.79514648 320.203125 7.88476562 C320.78320312 7.30791016 321.36328125 6.73105469 321.9609375 6.13671875 C322.49509277 5.60780029 323.02924805 5.07888184 323.57958984 4.53393555 C325.21501465 2.8489902 325.21501465 2.8489902 327 0 C329.9359436 -0.36076355 329.9359436 -0.36076355 333.74462891 -0.34057617 C334.43742447 -0.34101425 335.13022003 -0.34145233 335.8440094 -0.34190369 C338.13847851 -0.33981032 340.43222074 -0.31645468 342.7265625 -0.29296875 C344.31553752 -0.28737471 345.90451771 -0.28310371 347.49349976 -0.28010559 C351.67922203 -0.26864158 355.86463286 -0.23916131 360.05023193 -0.20599365 C364.31990343 -0.17532611 368.58962516 -0.16160737 372.859375 -0.14648438 C381.23972639 -0.11429284 389.61982447 -0.06307803 398 0 C397.05776991 1.10407484 396.11484287 2.20755492 395.17163086 3.31079102 C394.64661484 3.9253566 394.12159882 4.53992218 393.58067322 5.17311096 C391.29570505 7.81400046 388.9337246 10.37354887 386.5625 12.9375 C383.52126964 16.23586508 380.49669242 19.5430421 377.5625 22.9375 C374.45035448 26.52959086 371.23118538 30.01542713 368 33.5 C364.11706338 37.68931103 360.25557971 41.88757443 356.5390625 46.2265625 C355.45634339 47.47416269 354.34386556 48.69624746 353.2109375 49.8984375 C352.64632813 50.50945312 352.08171875 51.12046875 351.5 51.75 C350.9946875 52.28109375 350.489375 52.8121875 349.96875 53.359375 C348.81400028 54.96605803 348.81400028 54.96605803 349.1171875 56.96875 C350.2188308 59.5035045 351.60707202 60.86452289 353.625 62.75 C356.28806065 65.31425452 358.84201078 67.88213325 361.25 70.6875 C364.3803436 74.32527372 367.61237768 77.85639592 370.875 81.375 C375.18768274 86.02845604 379.46028262 90.71341672 383.69140625 95.44140625 C385.43808574 97.37723546 387.1950899 99.30029699 388.96484375 101.21484375 C389.46878662 101.76068115 389.97272949 102.30651855 390.49194336 102.86889648 C391.47910582 103.9366045 392.46813168 105.00259344 393.45922852 106.06665039 C396.88962674 109.77925349 396.88962674 109.77925349 398 112 C388.73353185 112.18569887 379.46770796 112.3276746 370.19978237 112.41449738 C365.89578278 112.45617777 361.59305978 112.51266858 357.28979492 112.60351562 C353.13348498 112.690707 348.97839936 112.73832789 344.82124519 112.75901794 C343.23870637 112.77375338 341.65623156 112.80253112 340.07421684 112.84584045 C327.67427653 113.17167294 327.67427653 113.17167294 323.50611877 110.25476074 C321.73703584 108.25170816 320.36139357 106.29233504 319 104 C318.26910156 103.1646875 317.53820312 102.329375 316.78515625 101.46875 C315.19010417 99.64583333 313.59505208 97.82291667 312 96 C308.20144921 97.56877504 305.79977997 99.96523122 302.9375 102.875 C301.65166016 104.17050781 301.65166016 104.17050781 300.33984375 105.4921875 C298.01408373 107.8149953 298.01408373 107.8149953 296.70611858 110.12667465 C295 112 295 112 292.460042 112.49219131 C291.43777358 112.48850414 290.41550516 112.48481697 289.36225891 112.48101807 C288.1885675 112.48651672 287.0148761 112.49201538 285.80561829 112.49768066 C283.87216805 112.47610901 283.87216805 112.47610901 281.8996582 112.45410156 C280.52977532 112.45297337 279.15989002 112.45360639 277.79000854 112.45587158 C274.0690192 112.4570208 270.34854403 112.43347859 266.62767434 112.40557575 C262.73994305 112.3805963 258.8522004 112.37822284 254.96440125 112.37347412 C247.60140768 112.36103412 240.23865124 112.32819883 232.87576216 112.28807616 C224.49378159 112.24339017 216.11178977 112.22137943 207.72971976 112.20129442 C190.48633873 112.15946694 173.24320348 112.0882909 156 112 C155.67 108.04 155.34 104.08 155 100 C153.35 103.96 151.7 107.92 150 112 C138.45 112 126.9 112 115 112 C113.35 108.37 111.7 104.74 110 101 C109.67 104.63 109.34 108.26 109 112 C86.89 112 64.78 112 42 112 C39.69 106.39 37.38 100.78 35 95 C29.39 95 23.78 95 18 95 C15.69 100.61 13.38 106.22 11 112 C-9.13 112 -29.26 112 -50 112 C-48.41948002 107.25844007 -46.64633111 102.84715276 -44.54296875 98.33984375 C-44.20405609 97.60650818 -43.86514343 96.87317261 -43.51596069 96.11761475 C-42.7882326 94.54341668 -42.05916747 92.96983613 -41.32888794 91.39682007 C-39.38121385 87.20021538 -37.44479263 82.99842369 -35.5078125 78.796875 C-35.11890335 77.95376266 -34.7299942 77.11065033 -34.32929993 76.24198914 C-31.02776507 69.07744636 -27.77954592 61.89043248 -24.5625 54.6875 C-24.06492187 53.57342773 -23.56734375 52.45935547 -23.0546875 51.31152344 C-22.26688875 49.54734662 -21.47909487 47.7831676 -20.69158936 46.01885986 C-16.54418829 36.7324917 -12.3627026 27.46139004 -8.1875 18.1875 C-5.485625 12.185625 -2.78375 6.18375 0 0 Z " fill="#FCFDFE" transform="translate(82,200)"/>
<path d="M0 0 C1.25159912 0.00523682 2.50319824 0.01047363 3.79272461 0.01586914 C4.78942421 0.01799156 4.78942421 0.01799156 5.80625916 0.02015686 C7.93590735 0.02577021 10.06545175 0.03832485 12.19506836 0.05102539 C13.63582205 0.05603868 15.07657739 0.06060188 16.51733398 0.06469727 C20.05577938 0.07574394 23.59416375 0.09301747 27.13256836 0.11352539 C32.57010693 11.60419425 37.7750392 23.19268115 42.9309082 34.81201172 C44.26036577 37.80732806 45.59281175 40.80130243 46.92553711 43.79516602 C47.78899693 45.73844605 48.65228413 47.68180281 49.51538086 49.62524414 C49.90509064 50.50057297 50.29480042 51.37590179 50.69631958 52.27775574 C53.61067602 58.85331183 56.36421656 65.46948108 59.13256836 72.11352539 C59.46256836 48.35352539 59.79256836 24.59352539 60.13256836 0.11352539 C71.02256836 0.11352539 81.91256836 0.11352539 93.13256836 0.11352539 C95.72990125 5.42905716 98.32634185 10.7450075 100.9206543 16.06201172 C101.80068891 17.86498986 102.68120991 19.66773069 103.56225586 21.47021484 C108.53052347 31.6354033 113.46105366 41.80760158 118.13256836 52.11352539 C120.09171655 50.1543772 120.76791959 48.96953819 121.84082031 46.48095703 C122.16488358 45.73580338 122.48894684 44.99064972 122.8228302 44.22291565 C123.16867661 43.41466843 123.51452301 42.6064212 123.87084961 41.77368164 C124.23349411 40.93695419 124.59613861 40.10022675 124.96977234 39.23814392 C126.13268013 36.55268046 127.28909327 33.86447942 128.44506836 31.17602539 C129.59161065 28.52027634 130.73950731 25.86511879 131.88822937 23.21031189 C132.60219616 21.55909709 133.31471959 19.90725707 134.02546692 18.25465393 C136.65001311 12.16761668 139.38792988 6.15173005 142.13256836 0.11352539 C153.02256836 0.11352539 163.91256836 0.11352539 175.13256836 0.11352539 C175.13256836 26.51352539 175.13256836 52.91352539 175.13256836 80.11352539 C168.53256836 80.11352539 161.93256836 80.11352539 155.13256836 80.11352539 C154.80256836 60.31352539 154.47256836 40.51352539 154.13256836 20.11352539 C144.98336579 40.05409509 135.88428197 59.99570914 127.13256836 80.11352539 C121.19256836 80.11352539 115.25256836 80.11352539 109.13256836 80.11352539 C103.50843417 69.01326055 98.14192266 57.82615033 92.94848633 46.51855469 C91.74070577 43.88931693 90.52871647 41.26204888 89.31616211 38.63500977 C88.5385765 36.94697011 87.76122385 35.25882313 86.98413086 33.57055664 C86.62582184 32.79347855 86.26751282 32.01640045 85.89834595 31.21577454 C85.39674454 30.12259163 85.39674454 30.12259163 84.88500977 29.00732422 C84.59381256 28.37385574 84.30261536 27.74038727 84.00259399 27.08772278 C82.98881033 24.78732038 82.06620112 22.4476073 81.13256836 20.11352539 C80.80256836 39.91352539 80.47256836 59.71352539 80.13256836 80.11352539 C66.93256836 80.11352539 53.73256836 80.11352539 40.13256836 80.11352539 C37.33177482 74.51193831 34.59959225 68.86991448 32.13256836 63.11352539 C18.60256836 63.11352539 5.07256836 63.11352539 -8.86743164 63.11352539 C-11.17743164 68.72352539 -13.48743164 74.33352539 -15.86743164 80.11352539 C-23.12743164 80.11352539 -30.38743164 80.11352539 -37.86743164 80.11352539 C-36.35339023 75.57140115 -34.69782931 71.29643228 -32.73461914 66.95336914 C-32.4253801 66.26238129 -32.11614105 65.57139343 -31.79753113 64.85946655 C-31.12965473 63.36720691 -30.4606255 61.87546279 -29.79055786 60.38418579 C-22.65406698 44.49814306 -15.69133024 28.54145932 -8.83374023 12.53320312 C-8.50706863 11.77302887 -8.18039703 11.01285461 -7.84382629 10.22964478 C-7.23098428 8.80351167 -6.6201127 7.37652969 -6.01152039 5.94857788 C-3.5125203 0.1390653 -3.5125203 0.1390653 0 0 Z " fill="#28A7D1" transform="translate(96.867431640625,215.886474609375)"/>
<path d="M0 0 C19.7690625 -0.309375 19.7690625 -0.309375 39.9375 -0.625 C44.0843335 -0.71604004 48.23116699 -0.80708008 52.50366211 -0.90087891 C57.60461426 -0.94604492 57.60461426 -0.94604492 59.99977112 -0.95443726 C61.65714945 -0.96970002 63.31442309 -1.00468149 64.97108459 -1.05575562 C78.9412366 -1.46456428 78.9412366 -1.46456428 84.0125885 2.14309692 C86.2866508 4.652187 88.13441969 7.18052872 90 10 C91.28749299 11.44317962 92.59746009 12.86705216 93.94140625 14.2578125 C94.54404297 14.90234375 95.14667969 15.546875 95.76757812 16.2109375 C96.35990234 16.84257812 96.95222656 17.47421875 97.5625 18.125 C98.18962891 18.7953125 98.81675781 19.465625 99.46289062 20.15625 C100.9744195 21.77162437 102.48678473 23.38620556 104 25 C109.12631105 20.75979906 113.70409915 16.28376167 118.1875 11.375 C119.38869993 10.0697389 120.59050604 8.76503536 121.79296875 7.4609375 C122.3139917 6.89165527 122.83501465 6.32237305 123.37182617 5.73583984 C123.90912354 5.1630127 124.4464209 4.59018555 125 4 C125.60980713 3.2766748 126.21961426 2.55334961 126.84790039 1.80810547 C129.6114914 -0.51374989 131.07062914 -0.46658236 134.640625 -0.390625 C135.71054687 -0.37773437 136.78046875 -0.36484375 137.8828125 -0.3515625 C138.99398437 -0.31804687 140.10515625 -0.28453125 141.25 -0.25 C142.37664062 -0.23195312 143.50328125 -0.21390625 144.6640625 -0.1953125 C147.44356896 -0.14820222 150.2213534 -0.08243361 153 0 C150.65441559 3.67180175 148.3476141 6.87578784 145.1875 9.875 C142.01365186 12.9676162 139.07967248 16.15564472 136.19921875 19.51953125 C134.33937259 21.6172263 132.44560636 23.66287801 130.51953125 25.69921875 C129.89127441 26.36429443 129.26301758 27.02937012 128.61572266 27.71459961 C127.34712068 29.05371517 126.07475276 30.38927481 124.79833984 31.72094727 C124.20875488 32.34412842 123.61916992 32.96730957 123.01171875 33.609375 C122.48022217 34.16592773 121.94872559 34.72248047 121.40112305 35.29589844 C119.9192982 37.09815274 118.96190859 38.88119743 118 41 C118.63615234 41.61875 118.63615234 41.61875 119.28515625 42.25 C119.87167969 42.8275 120.45820313 43.405 121.0625 44 C121.63097656 44.556875 122.19945312 45.11375 122.78515625 45.6875 C124.67972229 47.6656007 126.47957197 49.68165356 128.2734375 51.75 C132.52659647 56.64376661 136.99311779 61.32345128 141.48242188 66 C145.68474422 70.4316973 149.44585323 75.03327596 153 80 C148.97992472 80.20448678 144.96119536 80.32802689 140.9375 80.4375 C139.2369043 80.52547852 139.2369043 80.52547852 137.50195312 80.61523438 C129.21374513 80.78438148 129.21374513 80.78438148 125.74804688 78.54467773 C123.9801299 76.78821948 122.47836367 75.00311272 121 73 C120.37351562 72.31292969 119.74703125 71.62585938 119.1015625 70.91796875 C118.61429687 70.34691406 118.12703125 69.77585937 117.625 69.1875 C113.48944427 64.39251625 109.24531874 59.69776767 105 55 C101.86471445 56.37712542 99.87944227 57.92954048 97.57421875 60.44921875 C96.94193359 61.13306641 96.30964844 61.81691406 95.65820312 62.52148438 C94.68270508 63.59366211 94.68270508 63.59366211 93.6875 64.6875 C92.4009213 66.08832585 91.11316694 67.48807285 89.82421875 68.88671875 C88.97476685 69.81810669 88.97476685 69.81810669 88.1081543 70.76831055 C87.41246338 71.50476807 86.71677246 72.24122559 86 73 C85.61526016 73.59113083 85.23052032 74.18226166 84.8341217 74.79130554 C82.04261282 78.49267087 79.95647909 79.84143679 75.32258606 80.6096344 C70.5599832 80.90471781 65.80250327 80.7884915 61.03515625 80.68359375 C59.47360988 80.67329003 57.9120393 80.666156 56.35046387 80.66223145 C50.58743837 80.62566635 44.82493188 80.52793637 39.0625 80.4375 C26.171875 80.293125 13.28125 80.14875 0 80 C0 53.6 0 27.2 0 0 Z " fill="#28A7D1" transform="translate(289,216)"/>
<path d="M0 0 C6.9005961 -0.32358511 13.79670098 -0.55823718 20.703125 -0.71411133 C23.04700698 -0.77912953 25.39036895 -0.86758372 27.73242188 -0.98071289 C48.25798063 -1.94667296 48.25798063 -1.94667296 54.10253906 2.74731445 C56.73809023 5.36271476 58.86085279 8.20709979 60.86529541 11.32429504 C62.72744092 14.07426758 64.98141776 16.39107798 67.25 18.8125 C68.50088153 20.2075434 69.75125422 21.6030445 71 23 C69.39017885 27.09772657 66.42394174 29.76485294 63.3125 32.75 C62.28506433 33.74200686 61.26035855 34.73684823 60.23828125 35.734375 C59.73348236 36.21859924 59.22868347 36.70282349 58.70858765 37.20172119 C56.95146053 38.96385877 56.95146053 38.96385877 55.56106567 41.04144287 C53.21141064 44.27262089 51.38919449 46.61797712 47.44602966 47.70233154 C44.39360988 47.92434007 41.43706381 47.90064956 38.37890625 47.78125 C37.27900864 47.76993042 36.17911102 47.75861084 35.04588318 47.74694824 C31.54961368 47.70233755 28.05751934 47.6019952 24.5625 47.5 C22.18560631 47.4598536 19.80864801 47.42335488 17.43164062 47.390625 C11.61949703 47.30265043 5.81045509 47.16470083 0 47 C0 41.72 0 36.44 0 31 C14.19 31 28.38 31 43 31 C43 25.72 43 20.44 43 15 C28.81 15 14.62 15 0 15 C0 10.05 0 5.1 0 0 Z " fill="#F8FCFD" transform="translate(309,232)"/>
<path d="M0 0 C3.13076077 1.56538038 3.51033024 4.18575719 4.8203125 7.37109375 C5.21559647 8.32738426 5.21559647 8.32738426 5.61886597 9.30299377 C6.17506893 10.65257993 6.72797122 12.00353036 7.27783203 13.35571289 C8.12138289 15.4286115 8.9758067 17.49676193 9.83203125 19.56445312 C14 29.70766788 14 29.70766788 14 32 C5.09 32 -3.82 32 -13 32 C-9.625 21.875 -9.625 21.875 -7.51953125 17.08984375 C-7.07802734 16.08115234 -6.63652344 15.07246094 -6.18164062 14.03320312 C-5.72982422 13.01162109 -5.27800781 11.99003906 -4.8125 10.9375 C-4.34908203 9.88111328 -3.88566406 8.82472656 -3.40820312 7.73632812 C-2.2756523 5.15598036 -1.13952397 2.57727399 0 0 Z " fill="#F3FAFC" transform="translate(108,230)"/>
<path d="M0 0 C0.33 0 0.66 0 1 0 C1 15.84 1 31.68 1 48 C0.67 48 0.34 48 0 48 C-0.33 34.47 -0.66 20.94 -1 7 C-1.99 7.495 -1.99 7.495 -3 8 C-1.125 2.25 -1.125 2.25 0 0 Z " fill="#EEF8FB" transform="translate(251,234)"/>
<path d="M0 0 C0.33 0 0.66 0 1 0 C1 5.28 1 10.56 1 16 C0.67 16 0.34 16 0 16 C-0.33 13.03 -0.66 10.06 -1 7 C-1.99 7.495 -1.99 7.495 -3 8 C-1.125 2.25 -1.125 2.25 0 0 Z " fill="#DBF0F7" transform="translate(251,234)"/>
</svg>
