<svg width="25" height="25" viewBox="0 0 25 25" fill="none" xmlns="http://www.w3.org/2000/svg">
<path d="M19.1 3.20001H15.35C15.35 1.54532 14.0047 0.200012 12.35 0.200012C10.6953 0.200012 9.35004 1.54532 9.35004 3.20001H5.60004C4.35785 3.20001 3.35004 4.20782 3.35004 5.45001V21.95C3.35004 23.1922 4.35785 24.2 5.60004 24.2H19.1C20.3422 24.2 21.35 23.1922 21.35 21.95V5.45001C21.35 4.20782 20.3422 3.20001 19.1 3.20001ZM12.35 2.07501C12.9735 2.07501 13.475 2.57657 13.475 3.20001C13.475 3.82345 12.9735 4.32501 12.35 4.32501C11.7266 4.32501 11.225 3.82345 11.225 3.20001C11.225 2.57657 11.7266 2.07501 12.35 2.07501ZM18.0313 12.9406L11.3282 19.5875C11.1078 19.8078 10.7516 19.8031 10.5313 19.5828L6.65941 15.6781C6.4391 15.4578 6.44379 15.1016 6.6641 14.8813L7.99535 13.5594C8.21566 13.3391 8.57191 13.3438 8.79222 13.5641L10.9485 15.7391L15.9172 10.8078C16.1375 10.5875 16.4938 10.5922 16.7141 10.8125L18.036 12.1438C18.2563 12.3688 18.2516 12.7203 18.0313 12.9406Z" fill="#224487"/>
</svg>
