<svg width="25" height="25" viewBox="0 0 25 25" fill="none" xmlns="http://www.w3.org/2000/svg">
<path d="M9.96008 9.95001C9.96008 9.12173 9.28836 8.45001 8.46008 8.45001H7.71008C6.05305 8.45001 4.71008 9.79298 4.71008 11.45V13.7C4.71008 15.357 6.05305 16.7 7.71008 16.7H8.46008C9.28836 16.7 9.96008 16.0283 9.96008 15.2V9.95001ZM18.2101 16.7C19.8671 16.7 21.2101 15.357 21.2101 13.7V11.45C21.2101 9.79298 19.8671 8.45001 18.2101 8.45001H17.4601C16.6318 8.45001 15.9601 9.12173 15.9601 9.95001V15.2C15.9601 16.0283 16.6318 16.7 17.4601 16.7H18.2101ZM12.9601 0.200012C6.2654 0.200012 1.17477 5.77017 0.960083 12.2V12.95C0.960083 13.3644 1.29571 13.7 1.71008 13.7H2.46008C2.87446 13.7 3.21008 13.3644 3.21008 12.95V12.2C3.21008 6.82392 7.58399 2.45001 12.9601 2.45001C18.3362 2.45001 22.7101 6.82392 22.7101 12.2H22.7045C22.7082 12.3139 22.7101 19.9681 22.7101 19.9681C22.7101 21.0627 21.8227 21.95 20.7282 21.95H15.9601C15.9601 20.7074 14.9527 19.7 13.7101 19.7H12.2101C10.9674 19.7 9.96008 20.7074 9.96008 21.95C9.96008 23.1927 10.9674 24.2 12.2101 24.2H20.7282C23.0654 24.2 24.9601 22.3053 24.9601 19.9681V12.2C24.7454 5.77017 19.6548 0.200012 12.9601 0.200012Z" fill="#224487"/>
</svg>
