<svg width="25" height="25" viewBox="0 0 25 25" fill="none" xmlns="http://www.w3.org/2000/svg">
<path d="M19.8976 16.7H17.765C17.4544 16.7 17.2025 16.9519 17.2025 17.2625V19.646H11.4601V13.7H15.3976C15.7082 13.7 15.9601 13.4482 15.9601 13.1375V11.2625C15.9601 10.9519 15.7082 10.7 15.3976 10.7H11.4601V7.72082C11.4601 6.20836 12.6114 5.04492 14.3566 5.04492C15.4656 5.04492 16.5071 5.58422 17.059 5.92847C17.3005 6.07907 17.6163 6.02461 17.7944 5.80261L19.13 4.13793C19.3284 3.89062 19.2837 3.52832 19.0307 3.33726C18.2628 2.75751 16.5496 1.70001 14.2693 1.70001C10.4301 1.70001 7.71008 4.17229 7.71008 7.60443V10.7H6.39758C6.08694 10.7 5.83508 10.9519 5.83508 11.2625V13.1375C5.83508 13.4482 6.08694 13.7 6.39758 13.7H7.71008V19.7H6.02258C5.71194 19.7 5.46008 19.9519 5.46008 20.2625V22.1375C5.46008 22.4482 5.71194 22.7 6.02258 22.7H19.8976C20.2082 22.7 20.4601 22.4482 20.4601 22.1375V17.2625C20.4601 16.9519 20.2082 16.7 19.8976 16.7Z" fill="#224487"/>
</svg>
