<?xml version="1.0" encoding="UTF-8"?>
<svg version="1.1" xmlns="http://www.w3.org/2000/svg" width="512" height="512">
<path d="M0 0 C1.01790619 0.00215515 2.03581238 0.0043103 3.08456421 0.00653076 C17.69363523 0.05620146 32.02575853 0.30709809 46.375 3.3125 C47.34985352 3.51117676 48.32470703 3.70985352 49.32910156 3.91455078 C97.7109774 14.03517194 141.69928269 35.9516877 177.375 70.3125 C178.3640332 71.26068604 178.3640332 71.26068604 179.37304688 72.22802734 C188.86130305 81.37247479 197.6012044 90.66984009 205.375 101.3125 C206.23306152 102.46355017 207.09113451 103.61459177 207.94921875 104.765625 C213.98736829 112.95680614 219.34595521 121.47054105 224.375 130.3125 C224.73948242 130.94430176 225.10396484 131.57610352 225.47949219 132.22705078 C247.08534998 169.97532572 256.85198095 212.74189997 256.6875 255.9375 C256.68534485 256.95540619 256.6831897 257.97331238 256.68096924 259.02206421 C256.63129854 273.63113523 256.38040191 287.96325853 253.375 302.3125 C253.07698486 303.77478027 253.07698486 303.77478027 252.77294922 305.26660156 C242.65232806 353.6484774 220.7358123 397.63678269 186.375 433.3125 C185.74287598 433.97185547 185.11075195 434.63121094 184.45947266 435.31054688 C175.31502521 444.79880305 166.01765991 453.5387044 155.375 461.3125 C154.22394983 462.17056152 153.07290823 463.02863451 151.921875 463.88671875 C143.73224019 469.92427396 135.22961724 475.30707302 126.375 480.3125 C125.66778809 480.7146875 124.96057617 481.116875 124.23193359 481.53125 C101.09654164 494.5566741 75.92537591 503.30551461 49.9375 508.625 C49.21860596 508.77235596 48.49971191 508.91971191 47.7590332 509.0715332 C33.08339502 511.86090125 18.55831162 512.66142619 3.64770508 512.62817383 C0.70811513 512.6250221 -2.2304558 512.64854926 -5.16992188 512.67382812 C-18.54306192 512.71848737 -31.43916711 511.51301542 -44.625 509.3125 C-46.33055054 509.03031616 -46.33055054 509.03031616 -48.07055664 508.74243164 C-91.33802759 500.97044532 -132.38793216 480.98345309 -165.625 452.3125 C-166.37007813 451.67828125 -167.11515625 451.0440625 -167.8828125 450.390625 C-181.38779833 438.57948485 -194.05918743 425.82889772 -204.625 411.3125 C-205.48149066 410.16255169 -206.33826433 409.01281411 -207.1953125 407.86328125 C-213.23534209 399.67315742 -218.61867614 391.16870382 -223.625 382.3125 C-224.0271875 381.60528809 -224.429375 380.89807617 -224.84375 380.16943359 C-237.8691741 357.03404164 -246.61801461 331.86287591 -251.9375 305.875 C-252.08485596 305.15610596 -252.23221191 304.43721191 -252.3840332 303.6965332 C-255.35789088 288.05024391 -255.99800362 272.57681954 -255.9375 256.6875 C-255.93534485 255.66959381 -255.9331897 254.65168762 -255.93096924 253.60293579 C-255.88129854 238.99386477 -255.63040191 224.66174147 -252.625 210.3125 C-252.42632324 209.33764648 -252.22764648 208.36279297 -252.02294922 207.35839844 C-241.90232806 158.9765226 -219.9858123 114.98821731 -185.625 79.3125 C-184.99287598 78.65314453 -184.36075195 77.99378906 -183.70947266 77.31445312 C-174.56502521 67.82619695 -165.26765991 59.0862956 -154.625 51.3125 C-153.47394983 50.45443848 -152.32290823 49.59636549 -151.171875 48.73828125 C-142.98224019 42.70072604 -134.47961724 37.31792698 -125.625 32.3125 C-124.91778809 31.9103125 -124.21057617 31.508125 -123.48193359 31.09375 C-100.34654164 18.0683259 -75.17537591 9.31948539 -49.1875 4 C-48.46860596 3.85264404 -47.74971191 3.70528809 -47.0090332 3.5534668 C-31.36274391 0.57960912 -15.88931954 -0.06050362 0 0 Z " fill="#003473" transform="translate(255.625,-0.3125)"/>
<path d="M0 0 C2.546875 2.234375 2.546875 2.234375 4.546875 5.234375 C4.06476563 5.70488281 3.58265625 6.17539063 3.0859375 6.66015625 C2.45429688 7.28277344 1.82265625 7.90539062 1.171875 8.546875 C0.54539063 9.16175781 -0.08109375 9.77664062 -0.7265625 10.41015625 C-2.63399107 12.32250028 -2.63399107 12.32250028 -4.453125 15.234375 C-3.85886719 15.20706299 -3.26460937 15.17975098 -2.65234375 15.15161133 C13.91178985 14.58970594 13.91178985 14.58970594 18.32666016 17.34521484 C21.20624497 20.17041086 23.0298781 23.53266828 24.546875 27.234375 C24.546875 27.564375 24.546875 27.894375 24.546875 28.234375 C11.346875 28.234375 -1.853125 28.234375 -15.453125 28.234375 C-16.113125 29.884375 -16.773125 31.534375 -17.453125 33.234375 C-18.443125 35.214375 -19.433125 37.194375 -20.453125 39.234375 C-3.623125 39.234375 13.206875 39.234375 30.546875 39.234375 C34.546875 47.234375 34.546875 47.234375 35.546875 51.234375 C15.416875 51.564375 -4.713125 51.894375 -25.453125 52.234375 C-26.443125 55.864375 -27.433125 59.494375 -28.453125 63.234375 C-6.343125 63.234375 15.766875 63.234375 38.546875 63.234375 C38.876875 64.884375 39.206875 66.534375 39.546875 68.234375 C42.516875 68.234375 45.486875 68.234375 48.546875 68.234375 C48.216875 71.534375 47.886875 74.834375 47.546875 78.234375 C45.236875 78.234375 42.926875 78.234375 40.546875 78.234375 C40.546875 81.864375 40.546875 85.494375 40.546875 89.234375 C41.866875 89.894375 43.186875 90.554375 44.546875 91.234375 C47.38539646 95.49215719 47.05932549 99.2379827 46.546875 104.234375 C45.15693828 107.59948495 43.98740623 108.91498986 41.046875 111.046875 C37.66960601 113.65368411 37.66960601 113.65368411 35.546875 121.234375 C15.416875 121.234375 -4.713125 121.234375 -25.453125 121.234375 C-24.133125 124.534375 -22.813125 127.834375 -21.453125 131.234375 C-21.453125 131.894375 -21.453125 132.554375 -21.453125 133.234375 C-4.293125 133.234375 12.866875 133.234375 30.546875 133.234375 C28.566875 137.194375 26.586875 141.154375 24.546875 145.234375 C12.006875 145.234375 -0.533125 145.234375 -13.453125 145.234375 C-10.26318491 150.48856332 -10.26318491 150.48856332 -6.453125 155.234375 C-4.82055742 155.39152154 -3.18177162 155.48522914 -1.54296875 155.55078125 C-0.55361328 155.59267578 0.43574219 155.63457031 1.45507812 155.67773438 C2.49599609 155.71705078 3.53691406 155.75636719 4.609375 155.796875 C5.65416016 155.84005859 6.69894531 155.88324219 7.77539062 155.92773438 C10.36574384 156.03418725 12.95619686 156.1362026 15.546875 156.234375 C6.78050302 174.81447231 -18.4785265 186.06290738 -36.703125 192.609375 C-47.32544274 195.81915602 -57.97243674 196.5603167 -69.015625 196.484375 C-70.14419922 196.49210938 -71.27277344 196.49984375 -72.43554688 196.5078125 C-101.66261853 196.44058519 -126.7340453 184.19579496 -147.453125 164.234375 C-148.53400391 163.26564453 -148.53400391 163.26564453 -149.63671875 162.27734375 C-160.22991455 152.49409048 -166.92284812 139.35029904 -172.453125 126.234375 C-172.85273438 125.34878906 -173.25234375 124.46320313 -173.6640625 123.55078125 C-183.40407512 100.07954784 -181.86445367 69.70223217 -172.703125 46.359375 C-160.09925042 17.28559948 -138.25884823 -5.17227881 -108.80859375 -17.26171875 C-71.87194387 -30.5180031 -30.77526562 -24.59676839 0 0 Z " fill="#019CDC" transform="translate(244.453125,164.765625)"/>
<path d="M0 0 C0.61359375 0.26828613 1.2271875 0.53657227 1.859375 0.81298828 C10.79040516 4.79903299 18.44846477 9.8146257 26 16 C26.80179688 16.64839844 27.60359375 17.29679687 28.4296875 17.96484375 C50.89031105 36.96699758 63.28380524 65.3576723 66.22460938 94.203125 C68.20986585 123.89565659 57.03211663 152.890328 37.6875 175.0625 C29.04961745 184.37960066 20.11825556 191.8053522 9 198 C8.02160156 198.54527344 7.04320312 199.09054687 6.03515625 199.65234375 C-9.64667929 207.92477512 -25.19337778 211.35576762 -42.8125 211.25 C-44.08931641 211.25773438 -45.36613281 211.26546875 -46.68164062 211.2734375 C-58.09557244 211.25020303 -69.05056667 210.11478557 -79.875 206.375 C-80.63256592 206.11557617 -81.39013184 205.85615234 -82.1706543 205.58886719 C-92.83512822 201.79040855 -102.3652941 196.50199018 -111.4375 189.75 C-112.28115112 189.1317334 -112.28115112 189.1317334 -113.1418457 188.50097656 C-114.68359375 187.296875 -114.68359375 187.296875 -117 185 C-117 181 -117 181 -115.28515625 178.9296875 C-114.55167969 178.25164062 -113.81820312 177.57359375 -113.0625 176.875 C-110.13007565 174.23786751 -110.13007565 174.23786751 -108 171 C-108.6297876 171.04713135 -109.2595752 171.0942627 -109.90844727 171.14282227 C-127.93820432 172.32029607 -127.93820432 172.32029607 -133.01953125 169.06640625 C-135.2179751 166.17371697 -137 163.71435472 -137 160 C-124.46 159.67 -111.92 159.34 -99 159 C-97.35 155.7 -95.7 152.4 -94 149 C-110.83 148.67 -127.66 148.34 -145 148 C-149 139 -149 139 -149 136 C-128.87 136 -108.74 136 -88 136 C-87.01 133.03 -86.02 130.06 -85 127 C-81.875 124.125 -81.875 124.125 -79 122 C-77.55745528 117.67236584 -77.31168726 113.51796766 -78 109 C-78.825 108.195625 -79.65 107.39125 -80.5 106.5625 C-83.54757466 103.43873598 -83.33944027 102.42251008 -83.3125 98.1875 C-83.23249228 96.45704722 -83.13609913 94.72694675 -83 93 C-80.69 93 -78.38 93 -76 93 C-75.67 89.7 -75.34 86.4 -75 83 C-77.97 83 -80.94 83 -84 83 C-84.33 81.35 -84.66 79.7 -85 78 C-107.11 78 -129.22 78 -152 78 C-150 67 -150 67 -149 66 C-147.12903889 65.87655973 -145.25349072 65.82207606 -143.37866211 65.79467773 C-141.57690773 65.7647599 -141.57690773 65.7647599 -139.73875427 65.73423767 C-138.4314888 65.71752518 -137.12422333 65.70081268 -135.77734375 65.68359375 C-134.43355153 65.66303042 -133.08976588 65.64203412 -131.74598694 65.62062073 C-128.20325013 65.56533581 -124.66045433 65.51595502 -121.11761475 65.46777344 C-117.5047885 65.41760513 -113.89204828 65.36189475 -110.27929688 65.30664062 C-103.18627253 65.19898063 -96.09317112 65.0975532 -89 65 C-90.32 61.7 -91.64 58.4 -93 55 C-109.83 54.67 -126.66 54.34 -144 54 C-141.13443332 45.40329997 -141.13443332 45.40329997 -139 43 C-135.8850203 42.47608443 -133.29687824 42.27831466 -130.17578125 42.29296875 C-129.31438034 42.27784744 -128.45297943 42.26272614 -127.56547546 42.24714661 C-124.81421967 42.20415897 -122.06405862 42.19542126 -119.3125 42.1875 C-117.44723629 42.16436419 -115.58199879 42.13900077 -113.71679688 42.11132812 C-109.14443402 42.04836679 -104.57275828 42.01611795 -100 42 C-103.48687842 35.15067911 -103.48687842 35.15067911 -109.64013672 31.08105469 C-112.61288685 30.79338559 -115.45329101 30.7662715 -118.4375 30.875 C-119.96407227 30.87113281 -119.96407227 30.87113281 -121.52148438 30.8671875 C-124.01812917 30.8671875 -126.5051437 30.91255077 -129 31 C-115.54756127 10.27048773 -90.58303567 -1.92960152 -67.125 -7.5793457 C-44.62292603 -12.03374293 -20.86186941 -9.18633454 0 0 Z " fill="#EB1C2E" transform="translate(368,150)"/>
<path d="M0 0 C7.26 0 14.52 0 22 0 C22.66 10.23 23.32 20.46 24 31 C24.92683594 28.84597656 25.85367188 26.69195312 26.80859375 24.47265625 C27.70491226 22.39403932 28.60204934 20.31577753 29.49926758 18.23754883 C30.12382396 16.78967665 30.74752466 15.34143505 31.37036133 13.89282227 C32.2642059 11.81429587 33.16108912 9.73710438 34.05859375 7.66015625 C34.3377916 7.00910416 34.61698944 6.35805206 34.90464783 5.68727112 C36.88612829 1.11387171 36.88612829 1.11387171 38 0 C39.63472882 -0.08700342 41.27314055 -0.10701063 42.91015625 -0.09765625 C44.39418945 -0.09282227 44.39418945 -0.09282227 45.90820312 -0.08789062 C46.94912109 -0.07951172 47.99003906 -0.07113281 49.0625 -0.0625 C50.62967773 -0.05573242 50.62967773 -0.05573242 52.22851562 -0.04882812 C54.8190666 -0.03699913 57.40950559 -0.02051689 60 0 C58.57941021 12.2765994 56.29079808 24.32351339 53.875 36.4375 C53.49827652 38.34431784 53.12197171 40.25121844 52.74609375 42.15820312 C51.83554118 46.77310146 50.91937147 51.38685082 50 56 C45.38 56 40.76 56 36 56 C37.28474508 44.43729428 39.23677927 33.18499787 41.66455078 21.80908203 C42.06077244 19.97890668 42.06077244 19.97890668 42 18 C41.52054932 19.11560303 41.04109863 20.23120605 40.54711914 21.38061523 C38.77348452 25.50584011 36.99672201 29.62971144 35.21899414 33.75317383 C34.44892884 35.54056416 33.67972085 37.32832409 32.91137695 39.11645508 C31.80903857 41.68147069 30.70365871 44.24515631 29.59765625 46.80859375 C29.25283707 47.6127623 28.90801788 48.41693085 28.55274963 49.24546814 C26.11387171 54.88612829 26.11387171 54.88612829 25 56 C22.81360547 56.07258946 20.62499611 56.08373783 18.4375 56.0625 C16.64119141 56.04896484 16.64119141 56.04896484 14.80859375 56.03515625 C13.88175781 56.02355469 12.95492187 56.01195312 12 56 C11.29800052 43.32106794 10.85021165 30.69872368 11 18 C10.34 18 9.68 18 9 18 C8.8865625 19.1859375 8.773125 20.371875 8.65625 21.59375 C7.9121648 28.2800367 6.68921195 34.88118604 5.5 41.5 C5.27441406 42.78648437 5.04882812 44.07296875 4.81640625 45.3984375 C4.59855469 46.61789062 4.38070312 47.83734375 4.15625 49.09375 C3.95837891 50.20427734 3.76050781 51.31480469 3.55664062 52.45898438 C3 55 3 55 2 56 C-0.01964199 56.07244053 -2.04167124 56.08377188 -4.0625 56.0625 C-5.16722656 56.05347656 -6.27195312 56.04445313 -7.41015625 56.03515625 C-8.69212891 56.01775391 -8.69212891 56.01775391 -10 56 C-9.49400914 45.18286421 -7.11558111 34.65052353 -5 24.0625 C-4.6271142 22.1713205 -4.25471448 20.28004509 -3.8828125 18.38867188 C-3.20202495 14.93962469 -2.52087942 11.49066006 -1.83203125 8.04321289 C-1.69514893 7.35691299 -1.5582666 6.6706131 -1.41723633 5.96351624 C-0.99254941 3.96493747 -0.49554937 1.98219749 0 0 Z " fill="#F9FCFE" transform="translate(112,223)"/>
<path d="M0 0 C4.38470404 2.85654979 7.78506269 7.27519139 9.71484375 12.1171875 C10.70890527 20.54359274 9.95140457 28.6675047 5.71484375 36.1171875 C1.50844506 41.19836822 -3.75082777 44.90429375 -10.28515625 46.1171875 C-19.33852086 46.91469232 -25.38440831 46.23584528 -33.03515625 41.3671875 C-37.32894896 37.07339479 -38.64871375 32.19183281 -38.75390625 26.21850586 C-38.74359375 25.5456958 -38.73328125 24.87288574 -38.72265625 24.1796875 C-38.71363281 23.47529541 -38.70460938 22.77090332 -38.6953125 22.04516602 C-38.42598347 13.97184122 -36.25961463 9.74330469 -30.47265625 4.3046875 C-21.84601689 -2.61558363 -10.39290229 -4.61418495 0 0 Z " fill="#FEFAFA" transform="translate(388.28515625,233.8828125)"/>
<path d="M0 0 C4.92405456 7.53995855 1.57972136 19.23040848 0.0625 27.625 C-0.11990234 28.69041016 -0.30230469 29.75582031 -0.49023438 30.85351562 C-1.82874504 38.54873512 -1.82874504 38.54873512 -3 42.0625 C-6.63 42.0625 -10.26 42.0625 -14 42.0625 C-14 40.7425 -14 39.4225 -14 38.0625 C-15.0725 38.7225 -16.145 39.3825 -17.25 40.0625 C-22.68391026 42.77461207 -28.04846832 42.91027214 -34 42.0625 C-37.29200569 40.28481693 -38.45931731 38.98938461 -40.3125 35.8125 C-41.65318095 30.44977619 -41.84018016 26.68062476 -39.3125 21.8125 C-35.73632617 17.55975274 -32.32020766 14.73414995 -27 13.0625 C-24.19006055 12.92489278 -21.48998076 12.87238427 -18.6875 12.9375 C-17.94693359 12.94652344 -17.20636719 12.95554688 -16.44335938 12.96484375 C-14.62876533 12.98825787 -12.81433929 13.02412385 -11 13.0625 C-11.34444881 10.58983235 -11.34444881 10.58983235 -12 8.0625 C-15.12761008 6.49869496 -18.44602516 6.91929305 -21.875 6.9375 C-22.59558594 6.93363281 -23.31617188 6.92976562 -24.05859375 6.92578125 C-27.61204959 6.93232537 -30.52762301 7.19440575 -34 8.0625 C-33.34 4.4325 -32.68 0.8025 -32 -2.9375 C-20.5594902 -5.98830261 -10.22293903 -6.60231479 0 0 Z " fill="#F8FCFE" transform="translate(209,236.9375)"/>
<path d="M0 0 C3.97524509 2.28902432 6.50999398 5.20748796 8.5625 9.3125 C8.6597886 11.43568064 8.69227619 13.56209691 8.6875 15.6875 C8.69136719 17.40066406 8.69136719 17.40066406 8.6953125 19.1484375 C8.5625 22.3125 8.5625 22.3125 7.5625 26.3125 C-1.6775 26.3125 -10.9175 26.3125 -20.4375 26.3125 C-19.7775 28.6225 -19.1175 30.9325 -18.4375 33.3125 C-14.79591901 34.45389106 -11.36173247 34.44567039 -7.5625 34.4375 C-6.36882812 34.44007813 -5.17515625 34.44265625 -3.9453125 34.4453125 C-0.68402649 34.32183396 2.36188334 33.92913257 5.5625 33.3125 C5.0675 38.2625 5.0675 38.2625 4.5625 43.3125 C-4.28965745 46.85336298 -12.7192537 47.94378477 -21.875 44.6875 C-27.6009895 42.09563958 -31.05827036 38.16187243 -33.4375 32.3125 C-34.45547816 22.43678982 -33.56619239 13.84476863 -27.25 6 C-19.852615 -1.73713964 -10.12769759 -4.62064415 0 0 Z " fill="#F8FCFE" transform="translate(247.4375,233.6875)"/>
<path d="M0 0 C-0.33 3.3 -0.66 6.6 -1 10 C-3.31 10 -5.62 10 -8 10 C-8 13.63 -8 17.26 -8 21 C-6.68 21.66 -5.36 22.32 -4 23 C-1.16147854 27.25778219 -1.48754951 31.0036077 -2 36 C-3.72712182 40.18145284 -6.32107611 42.42475328 -10 45 C-13.1184325 46.0394775 -15.27475586 46.11494838 -18.54296875 46.09765625 C-19.61611328 46.09443359 -20.68925781 46.09121094 -21.79492188 46.08789062 C-22.91447266 46.07951172 -24.03402344 46.07113281 -25.1875 46.0625 C-26.31865234 46.05798828 -27.44980469 46.05347656 -28.61523438 46.04882812 C-31.41020927 46.03703498 -34.2050782 46.0205765 -37 46 C-37.125 38.375 -37.125 38.375 -36 35 C-29.73 35 -23.46 35 -17 35 C-17 33.35 -17 31.7 -17 30 C-17.66386719 29.70867187 -18.32773437 29.41734375 -19.01171875 29.1171875 C-24.66550692 26.4925092 -28.882076 24.5083324 -32 19 C-32.74995722 14.42673145 -32.54516973 10.47516516 -30.9375 6.125 C-22.60028889 -3.01903799 -11.1253891 -1.41274782 0 0 Z " fill="#F9FCFD" transform="translate(293,233)"/>
<path d="M0 0 C4.62 0 9.24 0 14 0 C13.67 2.97 13.34 5.94 13 9 C15.97 9.495 15.97 9.495 19 10 C18.67 13.63 18.34 17.26 18 21 C15.36 21 12.72 21 10 21 C9.78537109 22.71703125 9.78537109 22.71703125 9.56640625 24.46875 C8.28320312 34.734375 8.28320312 34.734375 7 45 C9.64 45 12.28 45 15 45 C13.84625867 54.33325074 13.84625867 54.33325074 10.9375 56.625 C0.67261253 57.93541117 0.67261253 57.93541117 -2.87890625 55.94921875 C-5.041274 54.18285087 -6.74441907 52.51116186 -8 50 C-8.43766058 42.93136874 -7.09792811 36.40713387 -5.6875 29.5 C-5.22888344 27.19016038 -4.77054985 24.88026456 -4.3125 22.5703125 C-4.08820313 21.45172852 -3.86390625 20.33314453 -3.6328125 19.18066406 C-2.78475108 14.91810846 -1.98009399 10.64815567 -1.1875 6.375 C-0.795625 4.27125 -0.40375 2.1675 0 0 Z " fill="#FEF7F8" transform="translate(302,223)"/>
<path d="M0 0 C3.96 0 7.92 0 12 0 C12.33 1.32 12.66 2.64 13 4 C13.639375 3.34 14.27875 2.68 14.9375 2 C19.04464253 -0.68221553 22.23379829 -0.37381974 27 0 C26.54554036 1.41791408 26.08625056 2.83428046 25.625 4.25 C25.24214844 5.43335938 25.24214844 5.43335938 24.8515625 6.640625 C23.27090301 11.02006689 23.27090301 11.02006689 22 13 C19.66752239 13.33926947 17.33414529 13.67240066 15 14 C11.29801883 17.45209744 10.60025889 22.45210025 9.4375 27.1875 C9.12522461 28.40663086 9.12522461 28.40663086 8.80664062 29.65039062 C7.42939125 35.07735762 6.19299153 40.52983148 5 46 C0.71 46 -3.58 46 -8 46 C-8.15552478 40.23949194 -7.64665219 35.051558 -6.50390625 29.4140625 C-6.35090561 28.63106781 -6.19790497 27.84807312 -6.04026794 27.04135132 C-5.71845358 25.40203167 -5.39305537 23.7634118 -5.06420898 22.12548828 C-4.56000203 19.61255025 -4.06719473 17.09757534 -3.57617188 14.58203125 C-3.26107338 12.98424535 -2.94534096 11.38658431 -2.62890625 9.7890625 C-2.48095108 9.03702545 -2.33299591 8.2849884 -2.18055725 7.51016235 C-1.11676312 2.23352624 -1.11676312 2.23352624 0 0 Z " fill="#FEF9F9" transform="translate(328,233)"/>
<path d="M0 0 C2.7780643 2.14394093 3.87798879 3.31020436 4.49609375 6.8046875 C4.28981723 17.61357702 4.28981723 17.61357702 1 22 C-2.20230627 24.7753321 -3.92284111 25.97887924 -8.1875 26.0625 C-11 25 -11 25 -12.875 23.0625 C-14.91697405 17.50379287 -14.77029275 12.18925308 -12.8125 6.625 C-9.35277536 1.61436431 -6.28243109 -1.06934997 0 0 Z " fill="#ED2133" transform="translate(379,243)"/>
<path d="M0 0 C1.8871875 0.0309375 1.8871875 0.0309375 3.8125 0.0625 C3.57654051 6.07946699 3.57654051 6.07946699 1.5859375 8.640625 C-0.81834316 10.78598313 -2.74619979 11.99229315 -5.9375 12.5 C-8.1875 12.0625 -8.1875 12.0625 -10.1875 10.0625 C-10.7440371 4.83105124 -10.7440371 4.83105124 -8.875 2.25 C-5.97070998 0.20624036 -3.43654977 -0.05633688 0 0 Z " fill="#0CA1DE" transform="translate(192.1875,257.9375)"/>
<path d="M0 0 C2 1.1875 2 1.1875 3 3 C3 4.65 3 6.3 3 8 C-1.95 8 -6.9 8 -12 8 C-11 3 -11 3 -9.9375 1.1875 C-6.79178251 -0.74052039 -3.58280381 -0.54488475 0 0 Z " fill="#12A4DF" transform="translate(241,243)"/>
<path d="M0 0 C2.05078125 0.03255208 4.1015625 0.06510417 6.15234375 0.09765625 C6.15234375 3.39765625 6.15234375 6.69765625 6.15234375 10.09765625 C2.3593065 9.09572188 -0.56301966 8.28741398 -3.84765625 6.09765625 C-2.77957394 0.14691194 -2.77957394 0.14691194 0 0 Z " fill="#09A0DE" transform="translate(278.84765625,242.90234375)"/>
<path d="M0 0 C0.78375 0.04125 1.5675 0.0825 2.375 0.125 C3 2.5 3 2.5 3.375 5.125 C2.715 5.785 2.055 6.445 1.375 7.125 C-1.25 6.75 -1.25 6.75 -3.625 6.125 C-4.25 4.25 -4.25 4.25 -4.625 2.125 C-2.625 0.125 -2.625 0.125 0 0 Z " fill="#F58A93" transform="translate(399.625,271.875)"/>
</svg>
