<?xml version="1.0" encoding="UTF-8"?>
<svg version="1.1" xmlns="http://www.w3.org/2000/svg" width="512" height="512">
<path d="M0 0 C1.57138771 1.50460994 3.1328008 3.01909403 4.69384766 4.53442383 C5.26586914 5.08066406 5.83789062 5.6269043 6.42724609 6.18969727 C14.46797062 13.87949001 21.73055124 21.83932531 28.37158203 30.76782227 C29.69250831 32.53263441 31.04166602 34.27248868 32.39697266 36.01098633 C63.06884553 75.88826122 79.08195975 126.56589863 80.69384766 176.53442383 C80.75572266 178.14317383 80.75572266 178.14317383 80.81884766 179.78442383 C82.06677104 243.42851646 57.80827743 307.3707795 13.74853516 353.38598633 C12.7305803 354.43573157 11.7123419 355.48520191 10.69384766 356.53442383 C10.14760742 357.10644531 9.60136719 357.6784668 9.03857422 358.26782227 C1.34878148 366.30854679 -6.61105383 373.57112741 -15.53955078 380.2121582 C-17.30436292 381.53308448 -19.0442172 382.8822422 -20.78271484 384.23754883 C-72.51530561 424.02801725 -140.32588853 438.39397128 -204.33691406 430.14379883 C-255.95815713 422.47648681 -303.90082336 398.84429474 -341.30615234 362.53442383 C-341.87817383 361.98818359 -342.45019531 361.44194336 -343.03955078 360.87915039 C-351.08027531 353.18935765 -358.34285593 345.22952234 -364.98388672 336.30102539 C-366.304813 334.53621325 -367.65397071 332.79635897 -369.00927734 331.05786133 C-399.68115022 291.18058643 -415.69426443 240.50294903 -417.30615234 190.53442383 C-417.34740234 189.46192383 -417.38865234 188.38942383 -417.43115234 187.28442383 C-418.67641198 123.77618248 -394.32948029 59.60292303 -350.36083984 13.68286133 C-349.34288499 12.63311608 -348.32464659 11.58364574 -347.30615234 10.53442383 C-346.75991211 9.96240234 -346.21367187 9.39038086 -345.65087891 8.80102539 C-337.96108616 0.76030086 -330.00125086 -6.50227976 -321.07275391 -13.14331055 C-319.30794176 -14.46423683 -317.56808749 -15.81339454 -315.82958984 -17.16870117 C-237.93838479 -77.07924285 -125.91241631 -80.13201157 0 0 Z " fill="#3C7FAC" transform="translate(424.30615234375,72.465576171875)"/>
<path d="M0 0 C3.12841037 2.58811789 3.95643874 3.14941406 8.2097168 3.14941406 C10.78036264 1.4726809 10.78036264 1.4726809 13.4597168 -0.78808594 C39.27111271 -21.04215919 70.64495238 -27.1057791 102.8815918 -23.42480469 C122.40480216 -19.95069629 140.95615476 -10.22572098 156.2097168 2.14941406 C157.06307617 2.83648437 157.91643555 3.52355469 158.7956543 4.23144531 C170.16470292 13.89692987 178.38411192 25.99801977 185.2097168 39.14941406 C185.91547852 40.4990625 185.91547852 40.4990625 186.63549805 41.87597656 C199.42182278 68.08200435 200.72314756 99.09709577 191.8112793 126.68457031 C187.0760773 140.37653759 180.38599006 152.94177761 171.2097168 164.14941406 C170.75757813 164.70322754 170.30543945 165.25704102 169.83959961 165.82763672 C155.01663985 183.62653516 134.57242659 196.2102731 112.2097168 202.14941406 C111.2796582 202.40907959 110.34959961 202.66874512 109.39135742 202.9362793 C100.90840889 205.1289168 92.94540054 205.5733386 84.2097168 205.46191406 C82.94643555 205.46513672 81.6831543 205.46835937 80.3815918 205.47167969 C69.09623909 205.40782224 58.16980183 204.2676377 47.4597168 200.58691406 C46.70803223 200.33079346 45.95634766 200.07467285 45.18188477 199.81079102 C32.8845919 195.43063442 21.80506997 189.13610694 11.62768555 180.99707031 C9.53240354 179.39599052 7.60838508 178.21735262 5.2097168 177.14941406 C4.78303711 177.56191406 4.35635742 177.97441406 3.91674805 178.39941406 C-16.23463596 197.01347599 -43.30343791 205.58574441 -70.2902832 205.39941406 C-71.41047852 205.40714844 -72.53067383 205.41488281 -73.68481445 205.42285156 C-84.59277633 205.39768902 -95.19576588 204.14280378 -105.5402832 200.58691406 C-106.29269287 200.33006836 -107.04510254 200.07322266 -107.8203125 199.80859375 C-136.46892596 189.59081734 -159.5904567 168.62213228 -172.9699707 141.37915039 C-175.27309081 136.49492732 -177.31224421 131.5333892 -179.1652832 126.46191406 C-179.40400146 125.8222168 -179.64271973 125.18251953 -179.88867188 124.5234375 C-183.78807438 113.26946572 -184.23481801 101.39308658 -184.2277832 89.58691406 C-184.22818604 88.88798035 -184.22858887 88.18904663 -184.22900391 87.46893311 C-184.1234845 55.54112712 -170.3665588 28.26953419 -147.91625977 5.90698242 C-108.90452976 -31.73855635 -41.75136135 -35.18180213 0 0 Z " fill="#CA2127" transform="translate(245.790283203125,159.8505859375)"/>
<path d="M0 0 C1.95154712 1.52384585 3.88969767 3.06504053 5.8125 4.625 C6.66585937 5.31207031 7.51921875 5.99914062 8.3984375 6.70703125 C19.76748612 16.3725158 27.98689512 28.47360571 34.8125 41.625 C35.28300781 42.52476562 35.75351562 43.42453125 36.23828125 44.3515625 C49.02460598 70.55759028 50.32593076 101.57268171 41.4140625 129.16015625 C36.6788605 142.85212353 29.98877326 155.41736355 20.8125 166.625 C20.36036133 167.17881348 19.90822266 167.73262695 19.44238281 168.30322266 C4.61942305 186.1021211 -15.82479021 198.68585903 -38.1875 204.625 C-39.11755859 204.88466553 -40.04761719 205.14433105 -41.00585938 205.41186523 C-49.48880791 207.60450274 -57.45181625 208.04892454 -66.1875 207.9375 C-67.45078125 207.94072266 -68.7140625 207.94394531 -70.015625 207.94726562 C-81.30097771 207.88340818 -92.22741497 206.74322363 -102.9375 203.0625 C-103.68918457 202.80637939 -104.44086914 202.55025879 -105.21533203 202.28637695 C-117.71795681 197.83308345 -136.97786906 190.04426187 -143.1875 177.625 C-140.2175 174.325 -137.2475 171.025 -134.1875 167.625 C-135.610625 167.66882813 -137.03375 167.71265625 -138.5 167.7578125 C-153.41572489 167.86502465 -153.41572489 167.86502465 -158.36328125 164.40234375 C-163.1875 158.27285192 -163.1875 158.27285192 -163.1875 154.625 C-149.9875 154.625 -136.7875 154.625 -123.1875 154.625 C-122.1975 151.655 -122.1975 151.655 -121.1875 148.625 C-120.1975 146.645 -119.2075 144.665 -118.1875 142.625 C-135.6775 142.625 -153.1675 142.625 -171.1875 142.625 C-175.1875 132.625 -175.1875 132.625 -175.1875 130.625 C-154.3975 130.625 -133.6075 130.625 -112.1875 130.625 C-111.0991849 124.09781108 -111.0991849 124.09781108 -110.0625 117.5625 C-109.78019531 115.78166016 -109.78019531 115.78166016 -109.4921875 113.96484375 C-109.20150691 110.77853726 -109.49715694 108.70535836 -110.1875 105.625 C-110.30459816 103.16866186 -110.36252994 100.70909608 -110.375 98.25 C-110.38917969 96.98414063 -110.40335937 95.71828125 -110.41796875 94.4140625 C-110.18203708 90.53518584 -109.26855835 87.34247339 -108.1875 83.625 C-108.01902909 80.33280572 -108.01902909 80.33280572 -108.1875 77.625 C-108.41824219 78.46804687 -108.64898437 79.31109375 -108.88671875 80.1796875 C-109.21285156 81.27539062 -109.53898437 82.37109375 -109.875 83.5 C-110.18824219 84.59054688 -110.50148438 85.68109375 -110.82421875 86.8046875 C-112.51151441 90.29531061 -113.66673193 90.35929217 -117.1875 91.625 C-122.28487406 99.46102534 -122.6570078 110.75112278 -123.86206055 119.82836914 C-124.1875 121.625 -124.1875 121.625 -125.1875 123.625 C-129.1475 123.625 -133.1075 123.625 -137.1875 123.625 C-136.61647408 114.50156317 -135.52979347 105.5715478 -134.03076172 96.56445312 C-133.68224901 94.46841936 -133.34250429 92.37109363 -133.00390625 90.2734375 C-131.33790014 80.07620041 -131.33790014 80.07620041 -130.1875 76.625 C-126.5575 76.625 -122.9275 76.625 -119.1875 76.625 C-118.8575 77.945 -118.5275 79.265 -118.1875 80.625 C-117.28 79.8 -116.3725 78.975 -115.4375 78.125 C-112.65125503 75.59205003 -112.31491739 75.625 -108.1875 75.625 C-108.5175 73.645 -108.8475 71.665 -109.1875 69.625 C-131.9575 69.625 -154.7275 69.625 -178.1875 69.625 C-177.1875 60.625 -177.1875 60.625 -176.1875 57.625 C-155.3975 57.625 -134.6075 57.625 -113.1875 57.625 C-114.5075 54.325 -115.8275 51.025 -117.1875 47.625 C-117.1875 46.965 -117.1875 46.305 -117.1875 45.625 C-135.0075 45.625 -152.8275 45.625 -171.1875 45.625 C-169.2075 41.665 -167.2275 37.705 -165.1875 33.625 C-151.6575 33.625 -138.1275 33.625 -124.1875 33.625 C-131.32915915 21.48781747 -131.32915915 21.48781747 -138.66015625 20.234375 C-140.52398114 20.22129553 -142.38915642 20.26881408 -144.25 20.375 C-145.69149414 20.38466797 -145.69149414 20.38466797 -147.16210938 20.39453125 C-149.51042593 20.41789758 -151.84305377 20.49544778 -154.1875 20.625 C-151.92034857 16.6921863 -149.58458368 13.67366484 -146.1875 10.625 C-145.5275 10.625 -144.8675 10.625 -144.1875 10.625 C-144.11402344 10.05007812 -144.04054687 9.47515625 -143.96484375 8.8828125 C-140.55992586 -1.00684849 -122.98571153 -8.04176106 -114.1875 -12.375 C-77.10931192 -29.11612156 -32.65639984 -23.90099912 0 0 Z " fill="#F6971D" transform="translate(396.1875,157.375)"/>
<path d="M0 0 C5.94 0 11.88 0 18 0 C18.33 11.22 18.66 22.44 19 34 C20.32 29.71 21.64 25.42 23 21 C24.23763544 17.22420569 25.48296494 13.45325871 26.75 9.6875 C27.22373047 8.27307617 27.22373047 8.27307617 27.70703125 6.83007812 C28.46993999 4.55291114 29.23475681 2.27638355 30 0 C36.27 0 42.54 0 49 0 C48.34711376 10.64567294 46.68773624 21.07298834 44.98876953 31.59423828 C44.49568586 34.65175113 44.01106413 37.71052454 43.52734375 40.76953125 C43.21664129 42.71362092 42.90546108 44.6576343 42.59375 46.6015625 C42.44893188 47.51604156 42.30411377 48.43052063 42.15490723 49.37271118 C42.01806519 50.21474091 41.88122314 51.05677063 41.74023438 51.92431641 C41.62111694 52.665336 41.50199951 53.40635559 41.37927246 54.16983032 C41 56 41 56 40 58 C36.04 58 32.08 58 28 58 C28.69248324 51.45470166 29.54746455 44.94963592 30.5 38.4375 C30.76110982 36.64463206 31.02153675 34.85166453 31.28125 33.05859375 C31.39533203 32.27798584 31.50941406 31.49737793 31.62695312 30.69311523 C32.12011345 27.1328721 32.55934007 23.56712322 33 20 C32.41714233 21.62010986 32.41714233 21.62010986 31.82250977 23.27294922 C30.38315924 27.27274607 28.94219277 31.27195915 27.50073242 35.27099609 C26.87659175 37.0032585 26.25289187 38.7356798 25.62963867 40.46826172 C24.73471532 42.95582114 23.83821831 45.44280847 22.94140625 47.9296875 C22.6622084 48.70682098 22.38301056 49.48395447 22.09535217 50.28463745 C20.11387171 55.77225659 20.11387171 55.77225659 19 58 C16.03 58 13.06 58 10 58 C9.505 38.695 9.505 38.695 9 19 C7.06683316 31.08609584 7.06683316 31.08609584 5.14086914 43.17333984 C4.89755976 44.6859145 4.65400562 46.19844981 4.41015625 47.7109375 C4.28572144 48.49960205 4.16128662 49.2882666 4.03308105 50.10083008 C3.1140718 55.7718564 3.1140718 55.7718564 2 58 C-1.63 58 -5.26 58 -9 58 C-9.15795064 52.07305019 -8.60486645 46.64345711 -7.5390625 40.8203125 C-7.31311905 39.54110428 -7.31311905 39.54110428 -7.08261108 38.23605347 C-6.60313153 35.53118519 -6.11410774 32.82814188 -5.625 30.125 C-5.3040839 28.31911758 -4.98376626 26.51312869 -4.6640625 24.70703125 C-3.19561966 16.45204966 -1.6626114 8.21841462 0 0 Z " fill="#FDFAFA" transform="translate(82,223)"/>
<path d="M0 0 C3.96 0 7.92 0 12 0 C11.34711376 10.64567294 9.68773624 21.07298834 7.98876953 31.59423828 C7.49568586 34.65175113 7.01106413 37.71052454 6.52734375 40.76953125 C6.21664129 42.71362092 5.90546108 44.6576343 5.59375 46.6015625 C5.44893188 47.51604156 5.30411377 48.43052063 5.15490723 49.37271118 C5.01806519 50.21474091 4.88122314 51.05677063 4.74023438 51.92431641 C4.62111694 52.665336 4.50199951 53.40635559 4.37927246 54.16983032 C4 56 4 56 3 58 C-0.63 58 -4.26 58 -8 58 C-8.33 57.01 -8.66 56.02 -9 55 C-9.598125 55.495 -10.19625 55.99 -10.8125 56.5 C-15.52663597 58.71841693 -19.87895878 58.79710774 -25 58 C-29.76908748 55.75459463 -32.05571736 51.73677923 -34 47 C-35.62273788 37.40334137 -34.73257186 27.87973178 -29.7890625 19.43359375 C-26.53104324 15.00183392 -23.25572471 11.75190824 -18 10 C-11.90272304 9.41372337 -8.94893687 10.73370167 -4 14 C-3.67 14.33 -3.34 14.66 -3 15 C-2.01 10.05 -1.02 5.1 0 0 Z " fill="#FEFCFA" transform="translate(419,223)"/>
<path d="M0 0 C0.68578125 -0.02449219 1.3715625 -0.04898438 2.078125 -0.07421875 C7.22251575 -0.10367137 10.07093049 1.11981159 14 4.375 C16.43284816 6.78213095 16.9473758 8.0052083 17.43359375 11.421875 C17.44684818 23.98707615 15.30139819 36.04608113 13 48.375 C9.37 48.375 5.74 48.375 2 48.375 C2 47.385 2 46.395 2 45.375 C1.030625 46.035 0.06125 46.695 -0.9375 47.375 C-5.24524861 49.80791875 -9.14436416 50.39909774 -14 49.375 C-17.29724864 47.66323688 -19.39573372 45.29453564 -21.4375 42.1875 C-22.58447235 36.45263823 -21.92154577 31.21809154 -19.3125 26 C-16.03200726 22.27619742 -12.70749042 19.94416347 -8 18.375 C-5.77181559 18.30562938 -3.54165476 18.29042916 -1.3125 18.3125 C0.45673828 18.32603516 0.45673828 18.32603516 2.26171875 18.33984375 C3.16535156 18.35144531 4.06898438 18.36304688 5 18.375 C5 16.395 5 14.415 5 12.375 C-1.6 12.375 -8.2 12.375 -15 12.375 C-15 5.375 -15 5.375 -14 2.375 C-9.42325182 0.29592842 -4.95508618 0.00931407 0 0 Z " fill="#FDF9F9" transform="translate(149,232.625)"/>
<path d="M0 0 C1.88912109 -0.04253906 1.88912109 -0.04253906 3.81640625 -0.0859375 C8.79110205 0.54730317 11.79055195 2.50711098 15.08813477 6.24707031 C19.65229859 13.44469142 15.57867423 25.94859454 14.4375 34 C14.24417574 35.39965465 14.05146298 36.7993939 13.859375 38.19921875 C13.39245283 41.59214894 12.9172995 44.9838639 12.4375 48.375 C8.8075 48.375 5.1775 48.375 1.4375 48.375 C1.1075 47.385 0.7775 46.395 0.4375 45.375 C-0.05878906 45.66375 -0.55507813 45.9525 -1.06640625 46.25 C-5.72853953 48.79780718 -9.12479904 50.09318692 -14.5625 49.375 C-18.7199796 47.57972472 -20.8627055 45.57975482 -22.5625 41.375 C-23.28927133 35.42144852 -23.08046077 30.41741043 -19.5625 25.375 C-13.8472904 19.90827777 -9.61410307 18.09112923 -1.75 18.25 C-0.00783203 18.27707031 -0.00783203 18.27707031 1.76953125 18.3046875 C2.64996094 18.32789063 3.53039062 18.35109375 4.4375 18.375 C3.7775 16.395 3.1175 14.415 2.4375 12.375 C-3.5025 12.375 -9.4425 12.375 -15.5625 12.375 C-15.5625 5.375 -15.5625 5.375 -14.5625 2.375 C-9.69083644 0.53965772 -5.1798736 0.05312691 0 0 Z " fill="#FEFCFA" transform="translate(346.5625,232.625)"/>
<path d="M0 0 C3.69764705 1.85682709 6.29567062 4.52939602 8.15625 8.21875 C10.06215735 14.46461505 8.85338872 21.05154269 7.8046875 27.34375 C-0.4453125 27.34375 -8.6953125 27.34375 -17.1953125 27.34375 C-16.03979524 34.24850759 -16.03979524 34.24850759 -12.1953125 36.34375 C-6.17400704 36.9094459 -0.13345239 36.39941931 5.8046875 35.34375 C5.4746875 38.97375 5.1446875 42.60375 4.8046875 46.34375 C-2.34553338 48.94383032 -10.9075315 49.98702445 -18.1328125 47.09375 C-23.71174044 43.90579118 -26.71584191 41.35331431 -29.1953125 35.34375 C-29.48148728 32.63631216 -29.62638467 30.22527737 -29.5703125 27.53125 C-29.55943604 26.82419922 -29.54855957 26.11714844 -29.53735352 25.38867188 C-29.26068975 16.29321995 -27.17475649 10.80039333 -21.109375 4.0703125 C-14.97104434 -1.4667123 -7.9129574 -2.36543922 0 0 Z " fill="#FDFAFA" transform="translate(250.1953125,233.65625)"/>
<path d="M0 0 C1.18464844 -0.00515625 2.36929687 -0.0103125 3.58984375 -0.015625 C7.06332283 0.25006294 9.82335468 1.00379447 13.0625 2.25 C13.0897415 3.66655793 13.10900467 5.08327045 13.125 6.5 C13.13660156 7.28890625 13.14820313 8.0778125 13.16015625 8.890625 C13.06635306 11.15691002 12.69491063 13.0788895 12.0625 15.25 C11.093125 14.92 10.12375 14.59 9.125 14.25 C4.06852612 12.86074657 -1.15455099 11.74033075 -5.9609375 14.34765625 C-9.98275857 17.52947672 -12.92394706 21.13657974 -13.9375 26.25 C-14.53401364 32.97128044 -15.08861848 39.56143023 -10.9375 45.25 C-7.85202899 47.30698068 -7.12880376 47.5242059 -3.625 47.5 C-2.88636719 47.50515625 -2.14773438 47.5103125 -1.38671875 47.515625 C1.72092128 47.26618909 1.72092128 47.26618909 7.0625 45.25 C6.4025 49.54 5.7425 53.83 5.0625 58.25 C-1.99980014 60.70645222 -9.2310642 61.80338602 -16.25 58.625 C-22.11358418 55.23215996 -25.54300378 50.42599861 -27.4296875 43.99609375 C-29.60075239 32.25564283 -27.76993581 22.36738079 -22.1875 12 C-15.88839198 4.30109019 -10.17981638 -0.04421201 0 0 Z " fill="#FEFBF8" transform="translate(313.9375,221.75)"/>
<path d="M0 0 C0.82693359 0.01804688 1.65386719 0.03609375 2.50585938 0.0546875 C4.52524933 0.1013786 6.54403445 0.17310607 8.5625 0.25 C8.6875 7.875 8.6875 7.875 7.5625 11.25 C1.1275 11.745 1.1275 11.745 -5.4375 12.25 C-5.7675 13.9 -6.0975 15.55 -6.4375 17.25 C-5.83421875 17.55292969 -5.2309375 17.85585937 -4.609375 18.16796875 C4.37670765 22.8784153 4.37670765 22.8784153 6.5625 27.25 C7.37198616 33.39644725 7.33127366 39.09934266 3.5625 44.25 C-1.85835664 49.08125048 -6.78222957 48.73585423 -13.8125 48.5 C-15.34583984 48.47292969 -15.34583984 48.47292969 -16.91015625 48.4453125 C-19.42024749 48.39839491 -21.92837764 48.33276729 -24.4375 48.25 C-25.85437119 43.99938644 -24.63070039 41.53148375 -23.4375 37.25 C-18.1575 37.25 -12.8775 37.25 -7.4375 37.25 C-7.1075 35.6 -6.7775 33.95 -6.4375 32.25 C-7.11296875 31.88648438 -7.7884375 31.52296875 -8.484375 31.1484375 C-18.12542877 25.71489564 -18.12542877 25.71489564 -20.4375 20.25 C-21.20265649 15.26834283 -21.00316473 11.47183581 -18.875 6.875 C-13.12294466 0.68047886 -8.09848009 -0.33934002 0 0 Z " fill="#FDF9F9" transform="translate(189.4375,232.75)"/>
<path d="M0 0 C1.65322266 0.01740234 1.65322266 0.01740234 3.33984375 0.03515625 C4.99693359 0.04869141 4.99693359 0.04869141 6.6875 0.0625 C7.54214844 0.07410156 8.39679688 0.08570313 9.27734375 0.09765625 C8.94734375 2.40765625 8.61734375 4.71765625 8.27734375 7.09765625 C10.25734375 7.09765625 12.23734375 7.09765625 14.27734375 7.09765625 C13.94734375 10.72765625 13.61734375 14.35765625 13.27734375 18.09765625 C10.96734375 18.09765625 8.65734375 18.09765625 6.27734375 18.09765625 C4.97832454 26.14693601 3.9388108 33.93525057 4.27734375 42.09765625 C6.25734375 42.42765625 8.23734375 42.75765625 10.27734375 43.09765625 C9.94734375 46.39765625 9.61734375 49.69765625 9.27734375 53.09765625 C4.32339244 55.07923677 0.53883489 55.60683281 -4.72265625 55.09765625 C-7.15385248 53.22750531 -8.36334798 51.8162728 -9.72265625 49.09765625 C-10.22815892 42.71836708 -9.37672575 36.45293876 -8.41015625 30.16015625 C-8.2093042 28.81002441 -8.2093042 28.81002441 -8.00439453 27.43261719 C-7.58658601 24.65275233 -7.15684717 21.87500632 -6.72265625 19.09765625 C-6.51455322 17.75840088 -6.51455322 17.75840088 -6.30224609 16.39208984 C-5.90793159 13.8760546 -5.50536351 11.3615532 -5.09765625 8.84765625 C-4.9133606 7.69535522 -4.9133606 7.69535522 -4.7253418 6.51977539 C-3.66047256 0.13129385 -3.66047256 0.13129385 0 0 Z " fill="#FDF9F9" transform="translate(207.72265625,226.90234375)"/>
<path d="M0 0 C-0.47627975 1.95903745 -0.95611423 3.91721097 -1.4375 5.875 C-1.70433594 6.96554688 -1.97117187 8.05609375 -2.24609375 9.1796875 C-3 12 -3 12 -4 14 C-4.80179687 14.27972656 -5.60359375 14.55945313 -6.4296875 14.84765625 C-9.09481353 15.76374555 -9.09481353 15.76374555 -10.2578125 17.93359375 C-13.22649087 26.50531822 -14.48495088 35.24245017 -15.67456055 44.20336914 C-16 46 -16 46 -17 48 C-20.96 48 -24.92 48 -29 48 C-28.42897408 38.87656317 -27.34229347 29.9465478 -25.84326172 20.93945312 C-25.49474901 18.84341936 -25.15500429 16.74609363 -24.81640625 14.6484375 C-23.15040014 4.45120041 -23.15040014 4.45120041 -22 1 C-18.37 1 -14.74 1 -11 1 C-10.67 2.32 -10.34 3.64 -10 5 C-9.0925 4.175 -8.185 3.35 -7.25 2.5 C-4.46375503 -0.03294997 -4.12741739 0 0 0 Z " fill="#FDF8F8" transform="translate(288,233)"/>
<path d="M0 0 C-0.20496094 0.67546875 -0.40992188 1.3509375 -0.62109375 2.046875 C-0.89050781 2.93890625 -1.15992188 3.8309375 -1.4375 4.75 C-1.70433594 5.63171875 -1.97117187 6.5134375 -2.24609375 7.421875 C-3.02162219 9.93151678 -3.02162219 9.93151678 -3.44921875 12.2734375 C-3.63097656 12.84320313 -3.81273437 13.41296875 -4 14 C-5.175625 14.433125 -5.175625 14.433125 -6.375 14.875 C-10.15251542 16.49393518 -10.4676585 18.18137239 -12 22 C-12.88760192 25.86881031 -13.51352587 29.76672789 -14.125 33.6875 C-14.45904011 35.75421382 -14.79489544 37.82063529 -15.1328125 39.88671875 C-15.27605957 40.79639404 -15.41930664 41.70606934 -15.56689453 42.64331055 C-16 45 -16 45 -17 48 C-20.96 48 -24.92 48 -29 48 C-28.34990879 37.76312074 -26.72383079 27.83376009 -24.9375 17.75 C-24.65251138 16.11857396 -24.3680028 14.48706398 -24.08398438 12.85546875 C-23.39484404 8.90265802 -22.69925009 4.9510343 -22 1 C-18.37 1 -14.74 1 -11 1 C-10.67 2.32 -10.34 3.64 -10 5 C-9.0925 4.175 -8.185 3.35 -7.25 2.5 C-4.46375503 -0.03294997 -4.12741739 0 0 0 Z " fill="#FEFCFA" transform="translate(390,233)"/>
<path d="M0 0 C1.66796875 1.12109375 1.66796875 1.12109375 3 3 C3.89063574 9.54006046 4.03977553 16.5174475 0 22 C-2.22826958 24.22826958 -3.45613468 24.90714494 -6.5625 25.4375 C-9 25 -9 25 -10.625 23.40234375 C-13.43134202 18.49921777 -12.58838086 12.45992133 -12 7 C-9.73569155 0.97247468 -6.21513057 -0.5073576 0 0 Z " fill="#F79A22" transform="translate(410,245)"/>
<path d="M0 0 C-0.80139373 8.33449477 -0.80139373 8.33449477 -4 11 C-7.5625 11.375 -7.5625 11.375 -11 11 C-13 9 -13 9 -13.375 6.625 C-13 4 -13 4 -11.5625 1.6875 C-7.80766223 -0.78519805 -4.37248747 -0.33634519 0 0 Z " fill="#CC272D" transform="translate(152,260)"/>
<path d="M0 0 C-0.2871949 3.73353364 -0.53202866 6.32404139 -2.6875 9.4375 C-5.6716139 11.45379318 -7.46685108 11.46084551 -11 11 C-13 9 -13 9 -13.375 6.625 C-13 4 -13 4 -11.5625 1.6875 C-7.80766223 -0.78519805 -4.37248747 -0.33634519 0 0 Z " fill="#F79A23" transform="translate(349,260)"/>
<path d="M0 0 C1.9375 1.75 1.9375 1.75 3 4 C3 5.32 3 6.64 3 8 C-1.62 8 -6.24 8 -11 8 C-10 3 -10 3 -8.875 1.1875 C-5.85776705 -0.7234142 -3.46733097 -0.43341637 0 0 Z " fill="#CF3338" transform="translate(245,244)"/>
<path d="M0 0 C0.33 0.99 0.66 1.98 1 3 C1.66 3 2.32 3 3 3 C1.68 11.91 0.36 20.82 -1 30 C-1.99 30.33 -2.98 30.66 -4 31 C-2.90498782 20.62068247 -1.71043032 10.29897408 0 0 Z " fill="#F8AE4F" transform="translate(363,245)"/>
<path d="M0 0 C0.33 0.99 0.66 1.98 1 3 C1.66 3 2.32 3 3 3 C2.71926927 5.14729141 2.42511501 7.29283193 2.125 9.4375 C1.88136719 11.22994141 1.88136719 11.22994141 1.6328125 13.05859375 C1.31957031 14.51458984 1.31957031 14.51458984 1 16 C0.34 16.33 -0.32 16.66 -1 17 C-1.18451025 5.47835991 -1.18451025 5.47835991 0 0 Z " fill="#F7A438" transform="translate(363,245)"/>
<path d="M0 0 C-1.39332574 3.36720387 -2.9789286 4.9859524 -6 7 C-5.37162381 3.35541809 -4.14650034 0 0 0 Z M-8 7 C-7.34 7.33 -6.68 7.66 -6 8 C-8.64 10.64 -11.28 13.28 -14 16 C-14 13 -14 13 -12.6875 11.39453125 C-12.130625 10.87246094 -11.57375 10.35039062 -11 9.8125 C-10.443125 9.28269531 -9.88625 8.75289062 -9.3125 8.20703125 C-8.6628125 7.60955078 -8.6628125 7.60955078 -8 7 Z " fill="#EC8323" transform="translate(258,161)"/>
<path d="M0 0 C0.33 0 0.66 0 1 0 C1 4.62 1 9.24 1 14 C0.01 14 -0.98 14 -2 14 C-1.85795259 12.41632253 -1.71119847 10.83306682 -1.5625 9.25 C-1.48128906 8.36828125 -1.40007812 7.4865625 -1.31640625 6.578125 C-1.03761535 4.30649548 -0.61209423 2.20148177 0 0 Z " fill="#D8585C" transform="translate(91,238)"/>
<path d="M0 0 C0.33 0.66 0.66 1.32 1 2 C3.02463255 2.65213292 3.02463255 2.65213292 5 3 C4.34 3 3.68 3 3 3 C2.67 5.64 2.34 8.28 2 11 C1.01 11 0.02 11 -1 11 C-0.67 7.37 -0.34 3.74 0 0 Z " fill="#D65357" transform="translate(163,267)"/>
<path d="M0 0 C0.99 0 1.98 0 3 0 C2.67 3.63 2.34 7.26 2 11 C1.01 11 0.02 11 -1 11 C-0.67 7.37 -0.34 3.74 0 0 Z " fill="#D34247" transform="translate(196,263)"/>
<path d="M0 0 C1.23967448 3.58128182 1.02699061 6.36603322 0 10 C-2.05078125 11.1796875 -2.05078125 11.1796875 -4 12 C-3.52309796 10.37433394 -3.04340334 8.74948689 -2.5625 7.125 C-2.29566406 6.22007812 -2.02882813 5.31515625 -1.75390625 4.3828125 C-1 2 -1 2 0 0 Z " fill="#D4484D" transform="translate(115,241)"/>
</svg>
