<svg width="23" height="25" viewBox="0 0 23 25" fill="none" xmlns="http://www.w3.org/2000/svg">
<path d="M21.2172 4.12344L12.2172 0.37344C11.9431 0.259712 11.6492 0.201172 11.3524 0.201172C11.0556 0.201172 10.7617 0.259712 10.4875 0.37344L1.48754 4.12344C0.648474 4.47031 0.100037 5.29063 0.100037 6.2C0.100037 15.5047 5.46722 21.9359 10.4828 24.0266C11.036 24.2563 11.6594 24.2563 12.2125 24.0266C16.2297 22.3531 22.6 16.5734 22.6 6.2C22.6 5.29063 22.0516 4.47031 21.2172 4.12344ZM11.3547 21.1203L11.35 3.26094L19.5953 6.69688C19.4407 13.7938 15.7469 18.9359 11.3547 21.1203Z" fill="#224487"/>
</svg>
